# xmcd
#
# Track frame offsets:
#	150
#	10156
#	21273
#	29642
#	40486
#	51301
#	63294
#	75058
#	89347
#	98738
#	108039
#	119879
#
# Disc length: 1731 seconds
#
# Revision: 0
# Processed by: cddbd v1.5.1PL0 Copyright (c) Steve Scherf et al.
# Submitted via: dBpowerAMP V4.0
#
DISCID=9306c10c
DTITLE=Conway Twitty - A Country Legend
DYEAR=1900
DGENRE=Country
TTITLE0=It's only make belive
TTITLE1=Heavenly
TTITLE2=Blue is the way I feel
TTITLE3=The hurt in my heart
TTITLE4=Big town
TTITLE5=Shake it up baby
TTITLE6=Maby baby
TTITLE7=I need your loving
TTITLE8=This road that I walk
TTITLE9=Don't go to far
TTITLE10=What am I living for
TTITLE11=I'll try
EXTD=
EXTT0=
EXTT1=
EXTT2=
EXTT3=
EXTT4=
EXTT5=
EXTT6=
EXTT7=
EXTT8=
EXTT9=
EXTT10=
EXTT11=
PLAYORDER=
